<?xml version="1.0" encoding="iso-8859-1"?>
<!-- Generator: Adobe Illustrator 19.0.0, SVG Export Plug-In . SVG Version: 6.00 Build 0)  -->
<svg version="1.1" id="Layer_1" xmlns="http://www.w3.org/2000/svg" xmlns:xlink="http://www.w3.org/1999/xlink" x="0px" y="0px"
	 viewBox="0 0 512 512" style="enable-background:new 0 0 512 512;" xml:space="preserve">
<g>
	<g>
		<path d="M511.891,186.273L491.767,65.534c-3.884-23.307-21.206-42.069-44.128-47.8l-55.682-13.92
			c-10.122-2.531-20.545-3.814-30.98-3.814H151.02c-10.435,0-20.858,1.283-30.98,3.814l-55.68,13.919
			c-22.922,5.73-40.244,24.494-44.128,47.8L0.11,186.273c-0.635,3.811,1.537,7.531,5.168,8.852l88.785,32.286v276.572
			c0,4.427,3.589,8.017,8.017,8.017h307.841c4.427,0,8.017-3.589,8.017-8.017V227.41l88.785-32.286
			C510.353,193.805,512.526,190.084,511.891,186.273z M333.08,16.034c-4.024,38.978-37.056,69.478-77.081,69.478
			s-73.055-30.5-77.081-69.478H333.08z M151.02,16.034h11.799c4.08,47.833,44.31,85.511,93.181,85.511s89.101-37.678,93.181-85.511
			h11.797c2.142,0,4.283,0.067,6.42,0.19c-1.959,27.089-13.581,52.275-33.114,71.469c-21.014,20.65-48.816,32.023-78.283,32.023
			c-29.356,0-57.083-11.299-78.073-31.816c-19.648-19.206-31.362-44.484-33.33-71.676C146.735,16.101,148.877,16.034,151.02,16.034z
			 M94.063,210.35l-77.042-28.016l2.649-15.891l74.394,26.782V210.35z M401.904,495.966H110.097v-18.171h291.807V495.966z
			 M409.921,119.714c-4.427,0-8.017,3.589-8.017,8.017V461.76H110.097V127.731c0-4.427-3.589-8.017-8.017-8.017
			c-4.427,0-8.017,3.589-8.017,8.017v48.452l-71.715-25.817l13.7-82.198c2.835-17.006,15.474-30.698,32.201-34.879l55.68-13.92
			c1.576-0.394,3.162-0.741,4.753-1.066c2.445,30.753,15.789,59.315,38.038,81.063c24.003,23.462,55.71,36.384,89.28,36.384
			c33.697,0,65.49-13.005,89.522-36.62c22.119-21.734,35.362-50.192,37.794-80.826c1.591,0.325,3.178,0.671,4.753,1.066
			l55.682,13.92c16.727,4.182,29.367,17.873,32.201,34.88l13.7,82.197l-71.715,25.817v-48.452
			C417.937,123.304,414.348,119.714,409.921,119.714z M417.937,210.35v-17.125l74.394-26.782l2.649,15.891L417.937,210.35z"/>
	</g>
</g>
<g>
</g>
<g>
</g>
<g>
</g>
<g>
</g>
<g>
</g>
<g>
</g>
<g>
</g>
<g>
</g>
<g>
</g>
<g>
</g>
<g>
</g>
<g>
</g>
<g>
</g>
<g>
</g>
<g>
</g>
</svg>
